<svg id="visual" viewBox="0 0 900 600" width="900" height="600" xmlns="http://www.w3.org/2000/svg" xmlns:xlink="http://www.w3.org/1999/xlink" version="1.1"><rect x="0" y="0" width="900" height="600" fill="#0f0d20"></rect><path d="M0 447L82 448L164 463L245 443L327 465L409 455L491 444L573 456L655 464L736 453L818 471L900 470L900 601L818 601L736 601L655 601L573 601L491 601L409 601L327 601L245 601L164 601L82 601L0 601Z" fill="#b41116"></path><path d="M0 479L82 459L164 462L245 482L327 459L409 456L491 469L573 470L655 475L736 465L818 469L900 466L900 601L818 601L736 601L655 601L573 601L491 601L409 601L327 601L245 601L164 601L82 601L0 601Z" fill="#aa0e15"></path><path d="M0 489L82 491L164 474L245 485L327 491L409 478L491 470L573 479L655 485L736 493L818 495L900 485L900 601L818 601L736 601L655 601L573 601L491 601L409 601L327 601L245 601L164 601L82 601L0 601Z" fill="#a10c14"></path><path d="M0 487L82 489L164 491L245 485L327 484L409 487L491 484L573 501L655 495L736 497L818 501L900 500L900 601L818 601L736 601L655 601L573 601L491 601L409 601L327 601L245 601L164 601L82 601L0 601Z" fill="#980913"></path><path d="M0 516L82 497L164 503L245 505L327 511L409 509L491 496L573 502L655 498L736 511L818 505L900 512L900 601L818 601L736 601L655 601L573 601L491 601L409 601L327 601L245 601L164 601L82 601L0 601Z" fill="#8e0711"></path><path d="M0 510L82 523L164 518L245 515L327 527L409 512L491 514L573 527L655 517L736 517L818 510L900 510L900 601L818 601L736 601L655 601L573 601L491 601L409 601L327 601L245 601L164 601L82 601L0 601Z" fill="#850510"></path><path d="M0 534L82 540L164 539L245 527L327 542L409 541L491 529L573 534L655 530L736 541L818 535L900 526L900 601L818 601L736 601L655 601L573 601L491 601L409 601L327 601L245 601L164 601L82 601L0 601Z" fill="#7c040e"></path><path d="M0 548L82 554L164 539L245 548L327 547L409 549L491 538L573 542L655 541L736 541L818 550L900 544L900 601L818 601L736 601L655 601L573 601L491 601L409 601L327 601L245 601L164 601L82 601L0 601Z" fill="#73020c"></path><path d="M0 562L82 564L164 560L245 551L327 560L409 559L491 561L573 561L655 557L736 551L818 563L900 564L900 601L818 601L736 601L655 601L573 601L491 601L409 601L327 601L245 601L164 601L82 601L0 601Z" fill="#6a010a"></path><path d="M0 566L82 578L164 567L245 570L327 574L409 576L491 572L573 578L655 573L736 565L818 576L900 575L900 601L818 601L736 601L655 601L573 601L491 601L409 601L327 601L245 601L164 601L82 601L0 601Z" fill="#610106"></path><path d="M0 582L82 586L164 579L245 579L327 578L409 579L491 581L573 582L655 589L736 590L818 587L900 578L900 601L818 601L736 601L655 601L573 601L491 601L409 601L327 601L245 601L164 601L82 601L0 601Z" fill="#580003"></path></svg>